<svg xmlns="http://www.w3.org/2000/svg" version="1.1" xmlns:xlink="http://www.w3.org/1999/xlink" width="351" height="400"><svg width="351" height="400" viewBox="0 0 351 400" fill="none" xmlns="http://www.w3.org/2000/svg">
<path fill-rule="evenodd" clip-rule="evenodd" d="M62.6859 3.0163C67.8897 -2.27906 75.4624 0.0769753 78.4709 4.85748L78.7478 5.32756L79.3673 6.43096C85.8038 17.6428 93.2548 22.7451 101.545 25.3372C110.764 28.2194 121.45 28.1884 134.869 28.05C151.784 27.8756 172.009 27.5893 193.141 35.6955C213.358 43.4507 233.662 58.5469 253.403 86.8663C261.921 84.3679 267.007 81.6739 271.034 77.9886C276.102 73.3497 280.278 66.4665 286.409 53.8264C289.134 48.21 297.548 45.563 302.756 51.3177L303.249 51.9004L303.939 52.7867C311.091 62.1247 318.9 77.0526 325.988 94.1886C333.37 112.037 340.219 132.893 344.873 153.57C349.507 174.155 352.076 195.036 350.568 212.768C349.551 224.734 346.568 236.283 340.247 245.147C342.816 256.501 343.425 266.807 342.563 276.277C341.142 291.879 335.783 304.623 329.596 315.485C329.581 315.641 329.566 316.007 329.664 316.644C329.865 317.959 330.472 319.829 331.684 322.034C334.11 326.446 338.428 331.235 344.215 334.553C348.027 336.739 349.608 340.758 349.298 344.288C348.977 347.932 346.496 351.956 341.732 353.131C334.582 354.894 328.486 355.152 322.587 353.521C319.985 352.802 317.59 351.753 315.327 350.518C315.069 351.327 314.921 352.096 314.839 352.85C314.534 355.657 315.045 359.22 316.67 365.246C318.582 372.341 312.202 379.653 304.351 377.518C288.394 373.179 274.808 364.89 265.349 357.876C260.957 354.619 257.381 351.58 254.787 349.237C243.803 356.966 231.468 362.817 218.218 366.329L197.451 395.741C193.441 401.42 184.99 401.42 180.98 395.741L160.298 366.452C148.416 363.356 137.262 358.383 127.152 351.86L121.473 352.065C110.361 359.911 100.978 365.059 91.5158 368.091C81.3723 371.34 71.7071 371.977 60.5932 371.554C51.6499 371.214 48.0125 360.744 53.602 354.709L54.4739 353.758C58.7073 349.084 61.0411 345.673 62.345 342.428C62.7895 341.322 63.141 340.159 63.3939 338.88C54.0691 340.318 45.9535 340.217 34.9557 337.78C25.7991 335.75 24.4904 323.96 31.9878 319.466L34.8426 317.738C41.2985 313.783 46.2952 310.351 49.2084 307.007C50.7598 305.226 51.1703 304.065 51.2585 303.447C51.3177 303.031 51.3572 302.139 50.2343 300.432C34.4658 276.462 29.6941 247.346 36.329 221.466C14.6979 201.169 4.37725e-05 168.215 0 117.185C0.000373111 92.1066 13.938 65.7023 27.9629 45.2163C42.2148 24.3991 57.6663 8.12474 62.6859 3.0163ZM84.2165 246.211C84.1661 247.584 84.1411 248.964 84.1411 250.35C84.1415 297.296 113.343 337.229 154.095 352.018C155.42 346.426 161.605 342.246 167.935 344.994L168.372 345.195L178.325 350.022L185.296 347.108C187.872 346.032 190.782 346.07 193.328 347.213L199.528 349.996L210.313 344.968L210.75 344.774C217.047 342.153 223.121 346.303 224.442 351.838C261.824 338.058 289.379 303.085 293.398 261.01C289.586 260.148 285.854 258.883 282.255 257.295V279.094C282.255 285.709 277.037 291.071 270.601 291.072H212.332C205.896 291.071 200.678 285.709 200.678 279.094V276.94C199.953 276.691 199.134 276.421 198.256 276.153C194.91 275.132 191.29 274.305 188.731 274.305C186.172 274.305 182.554 275.132 179.208 276.153C178.559 276.351 177.942 276.552 177.371 276.742V279.094C177.371 285.709 172.153 291.071 165.718 291.072H107.448C101.012 291.071 95.7947 285.709 95.7947 279.094V250.35C95.7947 249.705 95.8449 249.071 95.9405 248.454C92.7317 247.946 89.5231 247.36 86.3208 246.679C85.6195 246.53 84.9183 246.373 84.2165 246.211ZM107.448 279.094H165.718V250.35H137.542C137.222 250.371 136.903 250.388 136.583 250.407V264.125C136.583 269.086 132.669 273.109 127.842 273.109C123.015 273.108 119.102 269.086 119.102 264.125V250.656C117.043 250.588 114.981 250.486 112.915 250.35H107.448V279.094ZM212.332 279.094H270.601V250.744C270.413 250.614 270.227 250.482 270.041 250.35H241.465V264.125C241.465 269.086 237.55 273.109 232.723 273.109C227.896 273.108 223.984 269.086 223.984 264.125V250.35H212.332V279.094ZM240.563 207.461C223.28 224.19 200.68 236.661 175.485 243.82C176.676 245.698 177.371 247.941 177.371 250.35V264.236C180.729 263.282 184.969 262.328 188.731 262.328C192.716 262.328 197.237 263.4 200.678 264.407V250.35C200.678 243.736 205.896 238.373 212.332 238.373H256.748C249.027 229.591 243.039 218.832 240.563 207.461Z" fill="black"></path>
</svg><style>@media (prefers-color-scheme: light) { :root { filter: none; } }
@media (prefers-color-scheme: dark) { :root { filter: none; } }
</style></svg>